<?xml version="1.0" standalone="no"?><!DOCTYPE svg PUBLIC "-//W3C//DTD SVG 1.1//EN" "http://www.w3.org/Graphics/SVG/1.1/DTD/svg11.dtd"><svg t="1712654567807" class="icon" viewBox="0 0 1043 1024" version="1.1" xmlns="http://www.w3.org/2000/svg" p-id="5987" width="32.59375" height="32" xmlns:xlink="http://www.w3.org/1999/xlink"><path d="M1042.55 409.353h-61.835v-309.18c0-22.26-17.314-37.1-37.101-37.1H639.382V1.236h304.232c54.415 0 98.937 44.521 98.937 98.937v309.179z m-979.478 0H1.237v-309.18c0-54.415 44.521-98.936 98.937-98.936h304.232v61.835H100.174c-22.261 0-37.102 17.314-37.102 37.102v309.179z m880.542 613.41H639.382v-61.835h304.232c22.26 0 37.101-17.314 37.101-37.102V612.174h61.836v309.179c0 56.889-44.522 101.41-98.937 101.41z m-539.208 0H100.174c-54.416 0-98.937-44.521-98.937-98.937V612.174h61.835v309.179c0 22.26 17.314 37.101 37.102 37.101h304.232v64.31zM542.176 497.63L834.04 356.643v356.174L542.176 856.277V497.629zM178.582 697.976V339.33l321.546 158.3v356.173L178.582 697.977z m9.893-390.802L510.021 136.51l321.546 170.666-314.125 158.3-328.967-158.3z" p-id="5988" fill="#8a8a8a"></path></svg>