<?xml version="1.0" standalone="no"?><!DOCTYPE svg PUBLIC "-//W3C//DTD SVG 1.1//EN" "http://www.w3.org/Graphics/SVG/1.1/DTD/svg11.dtd"><svg t="1712654701337" class="icon" viewBox="0 0 1024 1024" version="1.1" xmlns="http://www.w3.org/2000/svg" p-id="8244" width="32" height="32" xmlns:xlink="http://www.w3.org/1999/xlink"><path d="M853.333333 0a85.333333 85.333333 0 0 1 85.333334 85.333333v853.333334a85.333333 85.333333 0 0 1-85.333334 85.333333H170.666667a85.333333 85.333333 0 0 1-85.333334-85.333333V85.333333a85.333333 85.333333 0 0 1 85.333334-85.333333h682.666666z m0 853.333333H170.666667v85.333334h682.666666v-85.333334zM256 85.333333H170.666667v682.666667h682.666666V85.333333h-341.333333v269.098667a21.333333 21.333333 0 0 1-28.074667 20.224L383.658667 341.333333l-99.541334 33.28A21.333333 21.333333 0 0 1 256 354.389333V85.333333z m170.666667 0H341.333333v180.181334l42.24-14.122667 43.093334 14.336V85.333333z" fill="#8a8a8a" p-id="8245"></path></svg>